<mxfile host="app.diagrams.net" modified="2023-11-01T08:38:01.230Z" agent="Mozilla/5.0 (Windows NT 10.0; Win64; x64) AppleWebKit/537.36 (KHTML, like Gecko) Chrome/118.0.0.0 Safari/537.36" version="22.0.8" etag="tx9AeK39foKfB5uZmZQb" type="github">
  <diagram name="페이지-1" id="ReDPaaWE6TeQwRga82Ks">
    <mxGraphModel>
      <root>
        <mxCell id="0" />
        <mxCell id="1" parent="0" />
      </root>
    </mxGraphModel>
  </diagram>
</mxfile>
